<svg xmlns="http://www.w3.org/2000/svg" viewBox="0 0 1024 1024">


  <!-- Original checkmark paths, scaled and centered -->
  <g transform="">
    <path fill="#34d399" d="M776.086121,257.956696 C780.204468,264.452576 783.946167,270.770172 788.112488,276.794067 C790.546997,280.314117 790.075623,282.393860 786.699768,284.999695 C763.720886,302.737244 742.110596,322.039368 721.977539,342.953247 C687.239746,379.038116 655.924683,417.920715 627.457764,459.118835 C597.303162,502.759552 570.069763,548.147217 545.567566,595.194214 C543.047058,600.033813 542.609253,604.719055 542.766541,610.023254 C543.216003,625.175781 543.087585,640.346436 543.125122,655.510010 C543.190674,682.004883 543.215576,708.499939 543.246399,734.994873 C543.256042,743.286987 543.239624,743.270386 534.724487,743.267395 C514.061707,743.260071 493.398956,743.274963 472.736206,743.269470 C465.705139,743.267578 465.696655,743.251953 465.690582,736.015259 C465.677338,720.184875 465.664032,704.354553 465.676422,688.524170 C465.678253,686.168213 465.424164,683.978821 464.237701,681.807373 C441.872437,640.875061 412.441742,605.990479 375.283508,577.712524 C354.626526,561.992249 331.497589,551.157776 306.892517,543.254150 C304.868866,542.604126 302.637268,542.355408 300.995514,540.726807 C300.869690,538.659912 302.682465,538.418945 303.868073,537.770142 C331.195282,522.815308 358.598236,507.997528 385.837646,492.884857 C390.054718,490.545166 392.805634,491.738922 396.111938,494.205292 C424.706238,515.534973 450.341675,539.918091 472.568848,567.851074 C473.161682,568.596130 473.573059,569.623779 475.128723,569.733521 C479.150635,562.489075 483.165710,555.058044 487.361206,547.730408 C531.827759,470.066650 583.424438,397.696686 645.711853,333.143463 C678.981567,298.663452 714.195557,266.435913 752.405701,237.516403 C760.646484,231.279327 759.264893,231.550293 764.595215,239.961533 C768.340393,245.871414 772.122314,251.758026 776.086121,257.956696 z"/>
    <path fill="#22c55e" d="M465.626617,492.999878 C465.637939,460.678131 465.653656,428.856384 465.660126,397.034637 C465.662170,386.977356 465.650879,387.025482 455.845062,387.024109 C414.027008,387.018158 372.208984,386.992981 330.390930,386.945282 C322.545746,386.936340 322.592316,386.873962 322.593170,378.972137 C322.595276,360.312531 322.566986,341.652893 322.511658,322.993378 C322.492859,316.653290 322.439026,316.613220 328.839966,316.610382 C377.822144,316.588562 426.807037,316.882843 475.785278,316.438446 C497.929504,316.237549 520.072632,316.295502 542.214905,316.196228 C570.349182,316.070038 598.485779,316.423096 626.620911,316.631592 C628.359009,316.644440 630.264404,316.046967 631.911926,317.335968 C632.031860,319.373688 630.349487,320.206940 629.246277,321.320099 C609.995117,340.744965 592.127197,361.393860 575.049133,382.729584 C572.621338,385.762634 569.970825,387.131958 566.117432,387.003082 C560.126770,386.802734 554.122803,387.040100 548.126831,386.944061 C544.532898,386.886475 543.035461,388.430420 543.077515,392.037872 C543.184143,401.199799 543.053650,410.364349 543.133423,419.526825 C543.159058,422.475677 542.435974,424.966827 540.671143,427.411469 C516.677002,460.648010 493.476898,494.407379 473.567474,530.309448 C473.080658,531.187378 472.628357,532.093567 471.170563,532.356140 C467.229187,529.310120 464.644135,525.835022 465.117554,519.961914 C465.825073,511.184601 465.508423,502.324677 465.626617,492.999878 z"/>
  </g>
</svg>
