<?xml version="1.0" standalone="no"?>
<svg xmlns:xlink="http://www.w3.org/1999/xlink" id="wave" style="transform:rotate(0deg); transition: 0.3s" viewBox="0 0 1440 490" version="1.1" xmlns="http://www.w3.org/2000/svg"><defs><linearGradient id="sw-gradient-0" x1="0" x2="0" y1="1" y2="0"><stop stop-color="rgba(224, 25, 25, 0.1)" offset="0%"/><stop stop-color="rgba(123, 27, 229, 0.2)" offset="100%"/></linearGradient></defs><path style="transform:translate(0, 0px); opacity:1" fill="url(#sw-gradient-0)" d="M0,245L120,236.8C240,229,480,212,720,196C960,180,1200,163,1440,138.8C1680,114,1920,82,2160,114.3C2400,147,2640,245,2880,253.2C3120,261,3360,180,3600,187.8C3840,196,4080,294,4320,310.3C4560,327,4800,261,5040,245C5280,229,5520,261,5760,253.2C6000,245,6240,196,6480,171.5C6720,147,6960,147,7200,187.8C7440,229,7680,310,7920,285.8C8160,261,8400,131,8640,81.7C8880,33,9120,65,9360,106.2C9600,147,9840,196,10080,204.2C10320,212,10560,180,10800,147C11040,114,11280,82,11520,98C11760,114,12000,180,12240,245C12480,310,12720,376,12960,383.8C13200,392,13440,343,13680,294C13920,245,14160,196,14400,204.2C14640,212,14880,278,15120,277.7C15360,278,15600,212,15840,196C16080,180,16320,212,16560,212.3C16800,212,17040,180,17160,163.3L17280,147L17280,490L17160,490C17040,490,16800,490,16560,490C16320,490,16080,490,15840,490C15600,490,15360,490,15120,490C14880,490,14640,490,14400,490C14160,490,13920,490,13680,490C13440,490,13200,490,12960,490C12720,490,12480,490,12240,490C12000,490,11760,490,11520,490C11280,490,11040,490,10800,490C10560,490,10320,490,10080,490C9840,490,9600,490,9360,490C9120,490,8880,490,8640,490C8400,490,8160,490,7920,490C7680,490,7440,490,7200,490C6960,490,6720,490,6480,490C6240,490,6000,490,5760,490C5520,490,5280,490,5040,490C4800,490,4560,490,4320,490C4080,490,3840,490,3600,490C3360,490,3120,490,2880,490C2640,490,2400,490,2160,490C1920,490,1680,490,1440,490C1200,490,960,490,720,490C480,490,240,490,120,490L0,490Z"/><defs><linearGradient id="sw-gradient-1" x1="0" x2="0" y1="1" y2="0"><stop stop-color="rgba(224, 25, 25, 0.1)" offset="0%"/><stop stop-color="rgba(123, 27, 229, 0.2)" offset="100%"/></linearGradient></defs><path style="transform:translate(0, 50px); opacity:0.9" fill="url(#sw-gradient-1)" d="M0,98L120,122.5C240,147,480,196,720,179.7C960,163,1200,82,1440,89.8C1680,98,1920,196,2160,228.7C2400,261,2640,229,2880,196C3120,163,3360,131,3600,171.5C3840,212,4080,327,4320,343C4560,359,4800,278,5040,253.2C5280,229,5520,261,5760,285.8C6000,310,6240,327,6480,326.7C6720,327,6960,310,7200,326.7C7440,343,7680,392,7920,351.2C8160,310,8400,180,8640,106.2C8880,33,9120,16,9360,73.5C9600,131,9840,261,10080,285.8C10320,310,10560,229,10800,187.8C11040,147,11280,147,11520,171.5C11760,196,12000,245,12240,220.5C12480,196,12720,98,12960,81.7C13200,65,13440,131,13680,179.7C13920,229,14160,261,14400,253.2C14640,245,14880,196,15120,163.3C15360,131,15600,114,15840,106.2C16080,98,16320,98,16560,106.2C16800,114,17040,131,17160,138.8L17280,147L17280,490L17160,490C17040,490,16800,490,16560,490C16320,490,16080,490,15840,490C15600,490,15360,490,15120,490C14880,490,14640,490,14400,490C14160,490,13920,490,13680,490C13440,490,13200,490,12960,490C12720,490,12480,490,12240,490C12000,490,11760,490,11520,490C11280,490,11040,490,10800,490C10560,490,10320,490,10080,490C9840,490,9600,490,9360,490C9120,490,8880,490,8640,490C8400,490,8160,490,7920,490C7680,490,7440,490,7200,490C6960,490,6720,490,6480,490C6240,490,6000,490,5760,490C5520,490,5280,490,5040,490C4800,490,4560,490,4320,490C4080,490,3840,490,3600,490C3360,490,3120,490,2880,490C2640,490,2400,490,2160,490C1920,490,1680,490,1440,490C1200,490,960,490,720,490C480,490,240,490,120,490L0,490Z"/></svg>