<svg xmlns="http://www.w3.org/2000/svg" width="24" height="24" fill="none" viewBox="0 0 96 96" id="settings">
  <path fill="#000000" d="M18.4906 23.4922L16.3021 22.2838L16.3021 22.2838L18.4906 23.4922ZM12.5353 34.2783L14.7239 35.4867L14.7239 35.4867L12.5353 34.2783ZM12.534 62.7159L10.3454 63.9243L10.3454 63.9243L12.534 62.7159ZM18.492 73.5069L16.3035 74.7153L16.3035 74.7153L18.492 73.5069ZM77.5093 73.5045L79.6978 74.7129L79.6978 74.7129L77.5093 73.5045ZM83.4646 62.7184L81.2761 61.51L81.2761 61.51L83.4646 62.7184ZM83.466 34.2807L81.2775 35.4891L81.2775 35.4891L83.466 34.2807ZM77.508 23.4897L79.6965 22.2814L79.6965 22.2814L77.508 23.4897ZM73.4897 22.414L72.1976 20.2737L72.1976 20.2737L73.4897 22.414ZM78.0834 47.4231L75.5862 47.5417L78.0834 47.4231ZM82.3478 38.4575L83.6399 40.5977L83.6399 40.5977L82.3478 38.4575ZM64.0585 75.1784L62.6979 73.0811L62.6979 73.0811L64.0585 75.1784ZM73.491 74.5803L74.7831 72.44L74.7831 72.44L73.491 74.5803ZM82.3464 58.5416L81.0543 60.6818L81.0543 60.6818L82.3464 58.5416ZM78.1068 49.8826L75.6078 49.8118L78.1068 49.8826ZM22.5104 74.5827L21.2183 72.4425L21.2183 72.4425L22.5104 74.5827ZM32.0829 75.1923L30.7241 77.2908L32.0829 75.1923ZM13.6522 58.5391L12.3601 56.3989L12.3601 56.3989L13.6522 58.5391ZM13.6535 38.4551L12.3614 40.5953L12.3614 40.5953L13.6535 38.4551ZM22.5089 22.4164L21.2169 24.5566L21.2169 24.5566L22.5089 22.4164ZM41.6427 12.2734C41.6427 11.9973 41.8666 11.7734 42.1427 11.7734V6.77344C39.1052 6.77344 36.6427 9.23587 36.6427 12.2734H41.6427ZM41.6427 13.0303V12.2734H36.6427V13.0303H41.6427ZM20.6792 24.7006C20.745 24.5814 20.8321 24.5263 20.9147 24.5042C20.9974 24.4821 21.1003 24.4863 21.2169 24.5566L23.801 20.2762C21.1682 18.6867 17.7886 19.5915 16.3021 22.2838L20.6792 24.7006ZM14.7239 35.4867L20.6792 24.7006L16.3021 22.2838L10.3467 33.0699L14.7239 35.4867ZM14.9456 36.3149C14.8233 36.241 14.7228 36.1134 14.6771 35.943C14.6315 35.7725 14.6548 35.6118 14.7239 35.4867L10.3467 33.0699C8.8967 35.6962 9.7932 39.0448 12.3614 40.5953L14.9456 36.3149ZM20.5 48.9615C20.5 48.5424 20.5087 48.1255 20.5261 47.7111L15.5304 47.5023C15.5102 47.9863 15.5 48.4727 15.5 48.9615H20.5ZM20.5075 49.633C20.5025 49.4098 20.5 49.186 20.5 48.9615H15.5C15.5 49.2233 15.5029 49.4844 15.5087 49.7449L20.5075 49.633ZM14.7226 61.5075C14.6535 61.3824 14.6302 61.2217 14.6758 61.0512C14.7215 60.8808 14.822 60.7532 14.9443 60.6793L12.3601 56.3989C9.7919 57.9494 8.89541 61.298 10.3454 63.9243L14.7226 61.5075ZM20.6806 72.2985L14.7226 61.5075L10.3454 63.9243L16.3035 74.7153L20.6806 72.2985ZM21.2183 72.4425C21.1017 72.5128 20.9988 72.517 20.9161 72.4949C20.8335 72.4728 20.7464 72.4177 20.6806 72.2985L16.3035 74.7153C17.79 77.4076 21.1696 78.3124 23.8024 76.7229L21.2183 72.4425ZM34.7308 73.879C34.2938 73.6291 33.864 73.3673 33.4417 73.0939L30.7241 77.2908C31.2232 77.614 31.7315 77.9237 32.2487 78.2194L34.7308 73.879ZM42.1427 85.2258C41.8666 85.2258 41.6427 85.0019 41.6427 84.7258H36.6427C36.6427 87.7634 39.1052 90.2258 42.1427 90.2258V85.2258ZM53.8571 85.2258H42.1427V90.2258H53.8571V85.2258ZM54.3571 84.7258C54.3571 85.0019 54.1332 85.2258 53.8571 85.2258V90.2258C56.8946 90.2258 59.3571 87.7634 59.3571 84.7258H54.3571ZM62.6979 73.0811C62.2273 73.3864 61.7473 73.6773 61.2585 73.9533L63.7166 78.3073C64.2952 77.9807 64.8629 77.6365 65.4191 77.2757L62.6979 73.0811ZM75.3207 72.2961C75.2549 72.4153 75.1678 72.4703 75.0852 72.4925C75.0026 72.5146 74.8996 72.5104 74.7831 72.44L72.1989 76.7205C74.8317 78.31 78.2113 77.4052 79.6978 74.7129L75.3207 72.2961ZM81.2761 61.51L75.3207 72.2961L79.6978 74.7129L85.6532 63.9268L81.2761 61.51ZM81.0543 60.6818C81.1767 60.7557 81.2772 60.8833 81.3228 61.0537C81.3684 61.2242 81.3451 61.3849 81.2761 61.51L85.6532 63.9268C87.1032 61.3005 86.2067 57.9519 83.6385 56.4014L81.0543 60.6818ZM75.6199 48.9615C75.6199 49.246 75.6158 49.5294 75.6078 49.8118L80.6058 49.9535C80.6152 49.624 80.6199 49.2932 80.6199 48.9615H75.6199ZM75.5862 47.5417C75.6086 48.0119 75.6199 48.4852 75.6199 48.9615H80.6199C80.6199 48.4061 80.6067 47.8536 80.5806 47.3045L75.5862 47.5417ZM81.2775 35.4891C81.3465 35.6142 81.3698 35.7749 81.3242 35.9454C81.2786 36.1159 81.1781 36.2434 81.0557 36.3173L83.6399 40.5977C86.2081 39.0472 87.1046 35.6986 85.6546 33.0723L81.2775 35.4891ZM75.3194 24.6981L81.2775 35.4891L85.6546 33.0723L79.6965 22.2814L75.3194 24.6981ZM74.7818 24.5542C74.8983 24.4838 75.0013 24.4796 75.0839 24.5018C75.1665 24.5239 75.2536 24.5789 75.3194 24.6981L79.6965 22.2814C78.21 19.589 74.8305 18.6842 72.1976 20.2737L74.7818 24.5542ZM54.3571 12.2734V12.9412H59.3571V12.2734H54.3571ZM53.8571 11.7734C54.1332 11.7734 54.3571 11.9973 54.3571 12.2734H59.3571C59.3571 9.23587 56.8946 6.77344 53.8571 6.77344V11.7734ZM42.1427 11.7734H53.8571V6.77344H42.1427V11.7734ZM64.0017 19.7785C61.1843 18.1499 59.3571 15.5707 59.3571 12.9412H54.3571C54.3571 17.9368 57.7153 21.9199 61.4994 24.1073L64.0017 19.7785ZM72.1976 20.2737C69.934 21.6403 66.8062 21.3997 64.0017 19.7785L61.4994 24.1073C65.3326 26.3232 70.4818 27.1502 74.7818 24.5542L72.1976 20.2737ZM80.5806 47.3045C80.4429 44.4066 81.5979 41.8305 83.6399 40.5977L81.0557 36.3173C77.0247 38.7509 75.3873 43.3536 75.5862 47.5417L80.5806 47.3045ZM65.4191 77.2757C67.701 75.7953 70.3264 75.59 72.1989 76.7205L74.7831 72.44C70.8402 70.0596 66.1148 70.8644 62.6979 73.0811L65.4191 77.2757ZM83.6385 56.4014C81.6675 55.2114 80.5265 52.7487 80.6058 49.9535L75.6078 49.8118C75.4922 53.8874 77.141 58.3192 81.0543 60.6818L83.6385 56.4014ZM32.2487 78.2194C34.936 79.7562 36.6427 82.2059 36.6427 84.7258H41.6427C41.6427 79.8735 38.443 76.0019 34.7308 73.879L32.2487 78.2194ZM23.8024 76.7229C25.7152 75.5681 28.3948 75.7826 30.7241 77.2908L33.4417 73.0939C29.9854 70.8558 25.2061 70.0349 21.2183 72.4425L23.8024 76.7229ZM59.3571 84.7258C59.3571 82.2358 61.049 79.8133 63.7166 78.3073L61.2585 73.9533C57.5514 76.0461 54.3571 79.8954 54.3571 84.7258H59.3571ZM15.5087 49.7449C15.5733 52.6276 14.3976 55.1689 12.3601 56.3989L14.9443 60.6793C18.922 58.2779 20.6002 53.7749 20.5075 49.633L15.5087 49.7449ZM12.3614 40.5953C14.4676 41.8669 15.6551 44.5194 15.5304 47.5023L20.5261 47.7111C20.7038 43.4586 19.039 38.7861 14.9456 36.3149L12.3614 40.5953ZM32.072 19.8053C29.2684 21.4321 26.0969 21.6623 23.801 20.2762L21.2169 24.5566C25.525 27.1576 30.7127 26.3748 34.5814 24.1299L32.072 19.8053ZM36.6427 13.0303C36.6427 15.6433 34.8542 18.1908 32.072 19.8053L34.5814 24.1299C38.3476 21.9445 41.6427 17.9882 41.6427 13.0303H36.6427Z"></path>
  <path stroke="#000000" stroke-width="5" d="M60.3943 46.0785C62.1818 52.7495 58.223 59.6064 51.552 61.3939C44.881 63.1814 38.024 59.2226 36.2365 52.5516C34.449 45.8806 38.4079 39.0236 45.0789 37.2361C51.7499 35.4486 58.6068 39.4075 60.3943 46.0785Z"></path>
</svg>
